<svg xmlns="http://www.w3.org/2000/svg" viewBox="0 0 1000 1000"><path class="cyrcle" fill="#17152f" d="M500 988c-65.9 0-129.8-12.9-189.9-38.3C252 925.1 199.8 889.9 155 845.1S75 748.1 50.4 690C24.9 629.8 12 565.9 12 500s12.9-129.8 38.3-189.9C74.9 252 110.1 199.8 154.9 155s97-80 155.1-104.6C370.2 24.9 434.1 12 500 12s129.8 12.9 189.9 38.3C748 74.9 800.2 110.1 845 154.9s80 97 104.6 155.1c25.5 60.2 38.4 124.1 38.4 190s-12.9 129.8-38.3 189.9C925.1 748 889.9 800.2 845.1 845s-97 80-155.1 104.6C629.8 975.1 565.9 988 500 988z"/><path class="cyrcle-up" fill="#f7f6ff" d="M500 24c64.3 0 126.6 12.6 185.3 37.4 56.7 24 107.6 58.3 151.3 102 43.7 43.7 78 94.6 102 151.3 24.8 58.7 37.4 121 37.4 185.3s-12.6 126.6-37.4 185.3c-24 56.7-58.3 107.6-102 151.3-43.7 43.7-94.6 78-151.3 102-58.7 24.8-121 37.4-185.3 37.4s-126.6-12.6-185.3-37.4c-56.7-24-107.6-58.3-151.3-102-43.7-43.7-78-94.6-102-151.3C36.6 626.6 24 564.3 24 500s12.6-126.6 37.4-185.3c24-56.7 58.3-107.6 102-151.3 43.7-43.7 94.6-78 151.3-102C373.4 36.6 435.7 24 500 24m0-24C223.9 0 0 223.9 0 500s223.9 500 500 500 500-223.9 500-500S776.1 0 500 0z"/><path class="logo-code" fill="#f7f6ff" d="M271.4 594.1c0 3.8-.2 6.9-.5 9.2-.3 2.3-.8 4-1.6 5s-1.7 1.4-2.8 1.2c-1.1-.1-2.5-.7-4.2-1.6L83.4 517.6c-1.5-.8-2.7-2.6-3.6-5.4-.9-2.9-1.4-7-1.4-12.5 0-2.4.1-4.7.3-6.8.2-2.1.6-3.9 1.1-5.2.5-1.4 1.1-2.5 1.8-3.5s1.5-1.6 2.4-1.9l178.2-89.9c3.5-1.7 5.9-1.6 7.2.2 1.3 1.8 1.9 6.3 1.9 13.4 0 4.4-.1 7.9-.3 10.4-.2 2.6-.6 4.7-1.1 6.2-.5 1.6-1.3 2.8-2.3 3.6-1 .8-2.4 1.7-4.2 2.6l-146.2 71.5 145.3 70.4c2 1.1 3.5 2 4.7 2.8 1.1.8 2 2 2.6 3.6.6 1.6 1 3.7 1.2 6.4.2 2.7.4 6.2.4 10.6zm245.4 104.5c0 5.3-.6 9.2-1.8 11.6-1.2 2.4-3.1 3.6-5.7 3.6H290.6c-2.6 0-4.5-1.1-5.9-3.4s-2-6.1-2-11.4c0-5.1.7-9 2-11.6 1.4-2.6 3.3-3.9 5.9-3.9h218.6c2.4 0 4.3 1.2 5.6 3.6 1.3 2.5 2 6.3 2 11.5zm47.2-13c-.6 2-1.4 3.5-2.4 4.7-1 1.1-2.2 2-3.7 2.6-1.5.6-3.4 1.1-5.6 1.4-2.2.3-4.9.5-8.1.5-3.8 0-6.9-.3-9.4-.8s-4.4-1.3-5.8-2.3c-1.4-1-2.2-2.2-2.5-3.6-.3-1.4 0-3.1.9-5.1l137.4-376.7c.6-2 1.4-3.5 2.4-4.7 1-1.1 2.2-2 3.6-2.7 1.4-.7 3.3-1.1 5.6-1.4 2.3-.2 5-.3 8.2-.3 3.8 0 6.9.3 9.3.8 2.4.5 4.3 1.2 5.7 2.2s2.2 2.1 2.5 3.6c.3 1.5.1 3.3-.7 5.2L564 685.6zm357.6-185c0 2.6-.2 4.9-.5 6.9s-.7 3.8-1.1 5.3c-.5 1.5-1.1 2.7-1.8 3.5-.8.8-1.6 1.5-2.5 1.9l-178.2 89.9c-1.7.8-3.1 1.2-4.3 1.2-1.2.1-2.2-.4-2.8-1.5-.7-1.1-1.2-2.7-1.5-4.9-.3-2.2-.5-5-.5-8.5 0-4.2.1-7.6.2-10.2.1-2.6.5-4.7 1-6.2.5-1.6 1.3-2.8 2.4-3.7 1.1-.9 2.4-1.7 4.1-2.5l146.4-72L737 429.7c-2-.9-3.5-1.8-4.7-2.6-1.1-.8-2-2.1-2.6-3.7-.6-1.7-1-3.8-1.1-6.5-.2-2.6-.2-6.2-.2-10.6 0-3.9.1-7 .5-9.2.3-2.2.8-3.8 1.5-4.8s1.6-1.4 2.8-1.2c1.2.2 2.6.7 4.3 1.6l178.9 90.1c1.5.8 2.8 2.6 3.7 5.6 1 3 1.5 7 1.5 12.2z"/></svg>