<svg version="1.1"
	 xmlns="http://www.w3.org/2000/svg" xmlns:xlink="http://www.w3.org/1999/xlink" xmlns:a="http://ns.adobe.com/AdobeSVGViewerExtensions/3.0/"
	 x="0px" y="0px" viewBox="0 0 1000 1000"
	 style="enable-background:new 0 0 1000 1000;" xml:space="preserve">
<defs>
</defs>
<g>
	<path fill="#ffffff" d="M500,988c-65.9,0-129.8-12.9-189.9-38.3c-58.1-24.6-110.3-59.8-155.1-104.6c-44.8-44.8-80-97-104.6-155.1
		C24.9,629.8,12,565.9,12,500s12.9-129.8,38.3-189.9c24.6-58.1,59.8-110.3,104.6-155.1c44.8-44.8,97-80,155.1-104.6
		C370.2,24.9,434.1,12,500,12s129.8,12.9,189.9,38.3c58.1,24.6,110.3,59.8,155.1,104.6c44.8,44.8,80,97,104.6,155.1
		C975.1,370.2,988,434.1,988,500s-12.9,129.8-38.3,189.9c-24.6,58.1-59.8,110.3-104.6,155.1c-44.8,44.8-97,80-155.1,104.6
		C629.8,975.1,565.9,988,500,988z"/>
	<path d="M500,24c64.3,0,126.6,12.6,185.3,37.4c56.7,24,107.6,58.3,151.3,102c43.7,43.7,78,94.6,102,151.3
		c24.8,58.7,37.4,121,37.4,185.3s-12.6,126.6-37.4,185.3c-24,56.7-58.3,107.6-102,151.3c-43.7,43.7-94.6,78-151.3,102
		C626.6,963.4,564.3,976,500,976s-126.6-12.6-185.3-37.4c-56.7-24-107.6-58.3-151.3-102c-43.7-43.7-78-94.6-102-151.3
		C36.6,626.6,24,564.3,24,500s12.6-126.6,37.4-185.3c24-56.7,58.3-107.6,102-151.3c43.7-43.7,94.6-78,151.3-102
		C373.4,36.6,435.7,24,500,24 M500,0C223.9,0,0,223.9,0,500s223.9,500,500,500s500-223.9,500-500S776.1,0,500,0L500,0z"/>
</g>
<g>
	<path d="M271.4,594.1c0,3.8-0.2,6.9-0.5,9.2c-0.3,2.3-0.8,4-1.6,5c-0.8,1-1.7,1.4-2.8,1.2c-1.1-0.1-2.5-0.7-4.2-1.6L83.4,517.6
		c-1.5-0.8-2.7-2.6-3.6-5.4c-0.9-2.9-1.4-7-1.4-12.5c0-2.4,0.1-4.7,0.3-6.8c0.2-2.1,0.6-3.9,1.1-5.2c0.5-1.4,1.1-2.5,1.8-3.5
		c0.7-1,1.5-1.6,2.4-1.9l178.2-89.9c3.5-1.7,5.9-1.6,7.2,0.2c1.3,1.8,1.9,6.3,1.9,13.4c0,4.4-0.1,7.9-0.3,10.4
		c-0.2,2.6-0.6,4.7-1.1,6.2c-0.5,1.6-1.3,2.8-2.3,3.6c-1,0.8-2.4,1.7-4.2,2.6l-146.2,71.5l145.3,70.4c2,1.1,3.5,2,4.7,2.8
		c1.1,0.8,2,2,2.6,3.6c0.6,1.6,1,3.7,1.2,6.4C271.2,586.2,271.4,589.7,271.4,594.1z"/>
	<path d="M516.8,698.6c0,5.3-0.6,9.2-1.8,11.6c-1.2,2.4-3.1,3.6-5.7,3.6H290.6c-2.6,0-4.5-1.1-5.9-3.4s-2-6.1-2-11.4
		c0-5.1,0.7-9,2-11.6c1.4-2.6,3.3-3.9,5.9-3.9h218.6c2.4,0,4.3,1.2,5.6,3.6C516.1,689.6,516.8,693.4,516.8,698.6z"/>
	<path d="M564,685.6c-0.6,2-1.4,3.5-2.4,4.7c-1,1.1-2.2,2-3.7,2.6c-1.5,0.6-3.4,1.1-5.6,1.4c-2.2,0.3-4.9,0.5-8.1,0.5
		c-3.8,0-6.9-0.3-9.4-0.8c-2.5-0.5-4.4-1.3-5.8-2.3c-1.4-1-2.2-2.2-2.5-3.6c-0.3-1.4,0-3.1,0.9-5.1l137.4-376.7
		c0.6-2,1.4-3.5,2.4-4.7c1-1.1,2.2-2,3.6-2.7c1.4-0.7,3.3-1.1,5.6-1.4c2.3-0.2,5-0.3,8.2-0.3c3.8,0,6.9,0.3,9.3,0.8
		c2.4,0.5,4.3,1.2,5.7,2.2s2.2,2.1,2.5,3.6c0.3,1.5,0.1,3.3-0.7,5.2L564,685.6z"/>
	<path d="M921.6,500.6c0,2.6-0.2,4.9-0.5,6.9c-0.3,2-0.7,3.8-1.1,5.3c-0.5,1.5-1.1,2.7-1.8,3.5c-0.8,0.8-1.6,1.5-2.5,1.9
		l-178.2,89.9c-1.7,0.8-3.1,1.2-4.3,1.2c-1.2,0.1-2.2-0.4-2.8-1.5c-0.7-1.1-1.2-2.7-1.5-4.9c-0.3-2.2-0.5-5-0.5-8.5
		c0-4.2,0.1-7.6,0.2-10.2c0.1-2.6,0.5-4.7,1-6.2c0.5-1.6,1.3-2.8,2.4-3.7c1.1-0.9,2.4-1.7,4.1-2.5l146.4-72L737,429.7
		c-2-0.9-3.5-1.8-4.7-2.6c-1.1-0.8-2-2.1-2.6-3.7c-0.6-1.7-1-3.8-1.1-6.5c-0.2-2.6-0.2-6.2-0.2-10.6c0-3.9,0.1-7,0.5-9.2
		c0.3-2.2,0.8-3.8,1.5-4.8c0.7-1,1.6-1.4,2.8-1.2c1.2,0.2,2.6,0.7,4.3,1.6l178.9,90.1c1.5,0.8,2.8,2.6,3.7,5.6
		C921.1,491.4,921.6,495.4,921.6,500.6z"/>
</g>
</svg>
